# xmcd CD database file
#
# Track frame offsets:
#	150
#	17217
#	39582
#	56932
#	75385
#	93567
#	115060
#	136007
#	158365
#	179985
#	208410
#
# Disc length: 3070 seconds
#
# Revision: 4
# Processed by: cddbd v1.5.2PL0 Copyright (c) Steve Scherf et al.
# Submitted via: CDex 1.70beta2
#
DISCID=940bfc0b
DTITLE=田震 - 野花 
DYEAR=1996
DGENRE=Blues
TTITLE0=野花
TTITLE1=自由自在
TTITLE2=執著
TTITLE3=你是否和我一樣
TTITLE4=怕黑的女人
TTITLE5=回了又去去了又回
TTITLE6=誰為我停留
TTITLE7=愛情守望者
TTITLE8=猜度
TTITLE9=沙粒螞蟻
TTITLE10=陽光下的田震 
EXTD=YEAR: 1996
EXTT0=
EXTT1=
EXTT2=
EXTT3=
EXTT4=
EXTT5=
EXTT6=
EXTT7=
EXTT8=
EXTT9=
EXTT10=
PLAYORDER=
